<svg xmlns="http://www.w3.org/2000/svg" viewBox="0 0 800 600" width="800" height="600" role="img">
  <defs>
    <linearGradient id="g5" x1="0" y1="0" x2="1" y2="1">
      <stop offset="0" stop-color="#5c3a26" />
      <stop offset="1" stop-color="#2c1a10" />
    </linearGradient>
  </defs>
  <rect width="800" height="600" fill="url(#g5)" />
  <!-- scoop -->
  <path d="M120 250 a150 150 0 0 0 300 0 Z" fill="#caa07a" />
  <rect x="60" y="244" width="80" height="14" rx="7" fill="#caa07a" />
  <!-- beans -->
  <g fill="#3a2418">
    <g>
      <ellipse cx="270" cy="300" rx="26" ry="17" />
      <ellipse cx="330" cy="320" rx="26" ry="17" transform="rotate(20 330 320)" />
      <ellipse cx="210" cy="320" rx="26" ry="17" transform="rotate(-20 210 320)" />
      <ellipse cx="470" cy="380" rx="26" ry="17" transform="rotate(30 470 380)" />
      <ellipse cx="540" cy="350" rx="26" ry="17" transform="rotate(-15 540 350)" />
      <ellipse cx="600" cy="410" rx="26" ry="17" transform="rotate(40 600 410)" />
      <ellipse cx="300" cy="430" rx="26" ry="17" transform="rotate(10 300 430)" />
      <ellipse cx="380" cy="450" rx="26" ry="17" transform="rotate(-25 380 450)" />
    </g>
  </g>
  <g stroke="#1c100a" stroke-width="3" opacity="0.6">
    <line x1="270" y1="285" x2="270" y2="315" />
    <line x1="470" y1="367" x2="470" y2="393" />
    <line x1="300" y1="415" x2="300" y2="445" />
  </g>
</svg>
